<svg width="15" height="14" viewBox="0 0 15 14" fill="none" xmlns="http://www.w3.org/2000/svg">
<path d="M14.7902 13.704C14.7112 13.7972 14.6143 13.8718 14.5059 13.9228C14.3975 13.9738 14.2799 14.0001 14.1611 14H0.839664L14.9944 13.0222C15.008 13.1445 14.9968 13.2685 14.9616 13.386C14.9264 13.5034 14.868 13.6118 14.7902 13.704ZM14.7902 13.704L14.7387 13.6603C14.7445 13.6539 14.7502 13.6474 14.7557 13.6409M14.7902 13.704L14.7386 13.6604C14.6693 13.7367 14.5851 13.7996 14.4899 13.844C14.4842 13.8467 14.4784 13.8493 14.4725 13.8519C14.3748 13.8946 14.2689 13.9169 14.1612 13.9167C14.1612 13.9167 14.1611 13.9167 14.1611 13.9167L14.7557 13.6409M14.1611 13.4167V13.5H14.1617C14.2061 13.5 14.2507 13.4903 14.293 13.4704C14.2991 13.4675 14.3051 13.4644 14.3111 13.4612C14.3465 13.4417 14.3797 13.4149 14.4084 13.3811C14.4142 13.3743 14.4198 13.3671 14.4251 13.3597L14.375 13.3168M14.1611 13.4167C14.2015 13.417 14.2414 13.4082 14.2783 13.391C14.3152 13.3738 14.3482 13.3485 14.375 13.3168M14.1611 13.4167H0.839664M14.1611 13.4167L14.1605 13.5H0.840306L0.839664 13.4167M14.375 13.3168L14.4254 13.3594C14.45 13.3252 14.4697 13.2858 14.4826 13.2425C14.4841 13.2378 14.4854 13.233 14.4867 13.2281C14.4987 13.1819 14.5027 13.1334 14.4982 13.0851L14.4423 13.0915M14.375 13.3168C14.4009 13.2865 14.4204 13.2507 14.432 13.2118C14.4436 13.1729 14.4471 13.1319 14.4423 13.0915M14.4423 13.0915L14.4982 13.0848L14.4423 13.0915ZM14.7557 13.6409C14.8241 13.5607 14.875 13.4682 14.9066 13.3695C14.9081 13.3647 14.9096 13.3598 14.911 13.355C14.9422 13.2509 14.9516 13.1417 14.9391 13.0342C14.939 13.0336 14.9389 13.0331 14.9389 13.0325L14.7557 13.6409ZM0.839664 13.4167V13.5L0.556347 13.0915C0.551825 13.132 0.555686 13.1732 0.567669 13.2121C0.579652 13.2509 0.599475 13.2867 0.625788 13.3168M0.839664 13.4167C0.799295 13.417 0.759328 13.4082 0.722442 13.391C0.685555 13.3738 0.652601 13.3485 0.625788 13.3168M0.625788 13.3168L0.574592 13.3601L0.575221 13.361L0.625788 13.3168ZM0.841006 13.9167H14.1598H0.841006Z" fill="#171726" stroke="#626264"/>
</svg>
