<svg xmlns="http://www.w3.org/2000/svg" xmlns:xlink="http://www.w3.org/1999/xlink" width="20" height="25" viewBox="0 0 20 25">
  <defs>
    <clipPath id="clip-path">
      <rect id="Rectangle_349" data-name="Rectangle 349" width="20" height="25" fill="none" stroke="#fff" stroke-width="1"/>
    </clipPath>
  </defs>
  <g id="Group_264" data-name="Group 264" clip-path="url(#clip-path)">
    <path id="Path_153" data-name="Path 153" d="M19.016,8.027H.5V4.472a2,2,0,0,1,2-2.006H17.021a2,2,0,0,1,2,2.006Z" transform="translate(0.242 1.213)" fill="none" stroke="#fff" stroke-linecap="round" stroke-linejoin="round" stroke-width="1"/>
    <path id="Path_154" data-name="Path 154" d="M13.217,3.434H3.448V2.506A2,2,0,0,1,5.443.5h5.779a2,2,0,0,1,2,2.006Z" transform="translate(1.667 0.246)" fill="none" stroke="#fff" stroke-linecap="round" stroke-linejoin="round" stroke-width="1"/>
    <path id="Path_155" data-name="Path 155" d="M17.028,6.194H1.511V19.2a2,2,0,0,0,2,2.006H15.032a2,2,0,0,0,2-2.006Z" transform="translate(0.731 3.046)" fill="none" stroke="#fff" stroke-linecap="round" stroke-linejoin="round" stroke-width="1"/>
    <line id="Line_38" data-name="Line 38" y2="6.969" transform="translate(5.006 13.01)" fill="none" stroke="#fff" stroke-linecap="round" stroke-linejoin="round" stroke-width="1"/>
    <line id="Line_39" data-name="Line 39" y2="6.969" transform="translate(8.335 13.01)" fill="none" stroke="#fff" stroke-linecap="round" stroke-linejoin="round" stroke-width="1"/>
    <line id="Line_40" data-name="Line 40" y2="6.969" transform="translate(11.665 13.01)" fill="none" stroke="#fff" stroke-linecap="round" stroke-linejoin="round" stroke-width="1"/>
    <line id="Line_41" data-name="Line 41" y2="6.969" transform="translate(14.995 13.01)" fill="none" stroke="#fff" stroke-linecap="round" stroke-linejoin="round" stroke-width="1"/>
  </g>
</svg>
