<svg width="60" height="60" viewBox="0 0 60 60" fill="none" xmlns="http://www.w3.org/2000/svg">
<circle cx="30" cy="30" r="29.5" stroke="#75C8ED"/>
<path d="M40.4889 36L31.6291 30L40.4889 24C40.6476 23.8925 40.7764 23.7532 40.8651 23.5929C40.9538 23.4327 41 23.2561 41 23.0769C41 22.8978 40.9538 22.7211 40.8651 22.5609C40.7764 22.4007 40.6476 22.2613 40.4889 22.1538L30.2667 15.2308C30.0768 15.1022 29.8511 15.0239 29.6148 15.0047C29.3784 14.9854 29.1408 15.026 28.9286 15.1218C28.7163 15.2176 28.5378 15.365 28.4131 15.5472C28.2883 15.7295 28.2222 15.9396 28.2222 16.1538V27.6923L20.0444 22.1538C19.7733 21.9702 19.4326 21.8914 19.0971 21.9347C18.7616 21.978 18.4589 22.1398 18.2556 22.3846C18.0522 22.6294 17.9649 22.9372 18.0128 23.2401C18.0608 23.543 18.24 23.8164 18.5111 24L27.3709 30L18.5111 36C18.3769 36.0909 18.2638 36.2048 18.1783 36.3352C18.0928 36.4656 18.0366 36.6099 18.0128 36.7599C17.9649 37.0628 18.0522 37.3706 18.2556 37.6154C18.4589 37.8602 18.7616 38.022 19.0971 38.0653C19.4326 38.1086 19.7733 38.0298 20.0444 37.8462L28.2222 32.3077V43.8462C28.2222 44.0604 28.2883 44.2705 28.4131 44.4528C28.5378 44.635 28.7163 44.7824 28.9286 44.8782C29.1408 44.974 29.3784 45.0146 29.6148 44.9953C29.8511 44.9761 30.0768 44.8978 30.2667 44.7692L40.4889 37.8462C40.6476 37.7387 40.7764 37.5993 40.8651 37.4391C40.9538 37.2789 41 37.1022 41 36.9231C41 36.7439 40.9538 36.5673 40.8651 36.4071C40.7764 36.2468 40.6476 36.1075 40.4889 36ZM30.7778 18.4615L37.5931 23.0769L30.7778 27.6923V18.4615ZM30.7778 41.5385V32.3077L37.5931 36.9231L30.7778 41.5385Z" fill="#75A7ED"/>
</svg>
