<svg width="15" height="16" viewBox="0 0 15 16" fill="none" xmlns="http://www.w3.org/2000/svg">
<path d="M14.4248 10.9291L14.4247 10.9292L9.86803 15.3779C9.86801 15.3779 9.86799 15.378 9.86798 15.378C9.82083 15.4239 9.75747 15.4494 9.69165 15.4489C9.6258 15.4484 9.56281 15.4219 9.51636 15.3753L9.51619 15.3751L7.5811 13.433C7.53979 13.3862 7.51747 13.3255 7.51869 13.2628C7.51996 13.1981 7.54631 13.1363 7.5922 13.0906C7.6381 13.0449 7.69994 13.0188 7.76471 13.0177C7.82732 13.0168 7.88792 13.0393 7.93463 13.0808L9.3457 14.4978L9.6951 14.8487L10.0494 14.5027L14.0752 10.5709C14.1227 10.5245 14.1867 10.4989 14.2531 10.4997C14.3194 10.5005 14.3828 10.5277 14.4291 10.5752C14.4755 10.6227 14.5011 10.6867 14.5003 10.7531C14.4995 10.8194 14.4723 10.8828 14.4248 10.9291ZM1 1.75V13.25C1 13.6641 1.33586 14 1.75 14H4.92C4.9863 14 5.04989 14.0263 5.09678 14.0732C5.14366 14.1201 5.17 14.1837 5.17 14.25C5.17 14.3163 5.14366 14.3799 5.09678 14.4268C5.04989 14.4737 4.9863 14.5 4.92 14.5H1.75C1.41848 14.5 1.10054 14.3683 0.866117 14.1339C0.631696 13.8995 0.5 13.5815 0.5 13.25V1.75C0.5 1.06014 1.06014 0.5 1.75 0.5H10.25C10.9399 0.5 11.5 1.06014 11.5 1.75V9.486C11.5 9.5523 11.4737 9.61589 11.4268 9.66278C11.3799 9.70966 11.3163 9.736 11.25 9.736C11.1837 9.736 11.1201 9.70966 11.0732 9.66278C11.0263 9.61589 11 9.5523 11 9.486V1.75C11 1.55109 10.921 1.36032 10.7803 1.21967C10.6397 1.07902 10.4489 1 10.25 1H1.75C1.55109 1 1.36032 1.07902 1.21967 1.21967C1.07902 1.36032 1 1.55109 1 1.75ZM3.75 4.5H8.25C8.3163 4.5 8.37989 4.52634 8.42678 4.57322C8.47366 4.62011 8.5 4.6837 8.5 4.75C8.5 4.8163 8.47366 4.87989 8.42678 4.92678C8.37989 4.97366 8.3163 5 8.25 5H3.75C3.6837 5 3.62011 4.97366 3.57322 4.92678C3.52634 4.87989 3.5 4.8163 3.5 4.75C3.5 4.6837 3.52634 4.62011 3.57322 4.57322C3.62011 4.52634 3.6837 4.5 3.75 4.5ZM3.5 7.75C3.5 7.6837 3.52634 7.62011 3.57322 7.57322C3.62011 7.52634 3.6837 7.5 3.75 7.5H5.75C5.8163 7.5 5.87989 7.52634 5.92678 7.57322C5.97366 7.62011 6 7.6837 6 7.75C6 7.8163 5.97366 7.87989 5.92678 7.92678C5.87989 7.97366 5.8163 8 5.75 8H3.75C3.6837 8 3.62011 7.97366 3.57322 7.92678C3.52634 7.87989 3.5 7.8163 3.5 7.75Z" fill="#171726" stroke="#626264"/>
</svg>
