<svg width="12" height="12" viewBox="0 0 12 12" fill="none" xmlns="http://www.w3.org/2000/svg">
<path d="M0.79764 10.95L0.802363 10.95C0.834322 10.9502 0.865989 10.9439 0.895505 10.9317C0.925021 10.9194 0.951794 10.9014 0.974253 10.8787L0.976441 10.8764L0.976448 10.8764L10.8764 0.976448L10.8827 0.97021L10.8891 0.964196C10.9137 0.941305 10.9334 0.913704 10.9471 0.883043C10.9607 0.852377 10.9681 0.819273 10.9687 0.785704C10.9693 0.752134 10.9631 0.71879 10.9505 0.687662C10.9379 0.656537 10.9192 0.628258 10.8955 0.604516C10.8717 0.580777 10.8435 0.562062 10.8123 0.549488C10.7812 0.536914 10.7479 0.530739 10.7143 0.531332C10.6807 0.531924 10.6476 0.539271 10.617 0.552935C10.5863 0.5666 10.5587 0.586301 10.5358 0.610861L10.5298 0.617316L10.5236 0.623555L0.623774 10.5233L0.79764 10.95ZM0.79764 10.95C0.76568 10.9502 0.734013 10.9439 0.704497 10.9317C0.674981 10.9194 0.648208 10.9014 0.625755 10.8787L0.623774 10.8767M0.79764 10.95L0.623774 10.8767M0.623774 10.8767C0.576958 10.8298 0.550661 10.7663 0.550661 10.7M0.623774 10.8767L0.550661 10.7M0.550661 10.7C0.550661 10.6339 0.576876 10.5704 0.623555 10.5236L0.550661 10.7ZM2.25654 1.00004L2.25654 1H2.25C2.00277 1 1.7611 1.07331 1.55554 1.21066C1.34998 1.34802 1.18976 1.54324 1.09515 1.77165C1.00054 2.00005 0.975788 2.25139 1.02402 2.49386C1.07225 2.73634 1.1913 2.95907 1.36612 3.13388C1.54093 3.3087 1.76366 3.42775 2.00614 3.47598C2.24862 3.52421 2.49995 3.49946 2.72836 3.40485C2.95676 3.31024 3.15199 3.15003 3.28934 2.94446C3.42669 2.7389 3.5 2.49723 3.5 2.25H3.50004L3.49996 2.24346C3.49566 1.91502 3.36328 1.60124 3.13102 1.36898C2.89876 1.13672 2.58498 1.00434 2.25654 1.00004ZM9.25654 8.00004L9.25654 8H9.25C9.00277 8 8.7611 8.07331 8.55554 8.21066C8.34998 8.34802 8.18976 8.54324 8.09515 8.77165C8.00054 9.00005 7.97579 9.25138 8.02402 9.49387C8.07225 9.73634 8.1913 9.95907 8.36612 10.1339C8.54094 10.3087 8.76367 10.4278 9.00614 10.476C9.24861 10.5242 9.49995 10.4995 9.72835 10.4049C9.95676 10.3102 10.152 10.15 10.2893 9.94446C10.4267 9.7389 10.5 9.49723 10.5 9.25H10.5L10.5 9.24346C10.4957 8.91502 10.3633 8.60124 10.131 8.36898C9.89876 8.13672 9.58498 8.00434 9.25654 8.00004ZM2.25 4C1.90388 4 1.56554 3.89737 1.27775 3.70507C0.989968 3.51278 0.765665 3.23947 0.633212 2.9197C0.500758 2.59993 0.466103 2.24806 0.533627 1.90859C0.601151 1.56913 0.767822 1.25731 1.01256 1.01256C1.25731 0.767822 1.56913 0.601151 1.90859 0.533627C2.24806 0.466103 2.59993 0.500758 2.9197 0.633212C3.23947 0.765665 3.51278 0.989968 3.70507 1.27775C3.89737 1.56554 4 1.90388 4 2.25C4 2.71413 3.81563 3.15925 3.48744 3.48744C3.15925 3.81563 2.71413 4 2.25 4ZM9.25 11C8.90388 11 8.56554 10.8974 8.27775 10.7051C7.98997 10.5128 7.76567 10.2395 7.63321 9.9197C7.50076 9.59993 7.4661 9.24806 7.53363 8.90859C7.60115 8.56913 7.76782 8.25731 8.01256 8.01256C8.25731 7.76782 8.56913 7.60115 8.90859 7.53363C9.24806 7.4661 9.59993 7.50076 9.9197 7.63321C10.2395 7.76567 10.5128 7.98997 10.7051 8.27775C10.8974 8.56554 11 8.90388 11 9.25C11 9.71413 10.8156 10.1592 10.4874 10.4874C10.1592 10.8156 9.71413 11 9.25 11Z" fill="#171726" stroke="#626264"/>
</svg>
