<svg width="18" height="18" viewBox="0 0 18 18" fill="none" xmlns="http://www.w3.org/2000/svg">
<path d="M16.2603 0.782297L16.2602 0.782351L16.2664 0.788553C16.6629 1.18498 16.6585 1.81603 16.2695 2.19844L16.2695 2.19842L16.2664 2.20145L12.3764 6.09145L12.1805 6.28738L12.2428 6.55739L14.3008 15.4785L13.5668 16.2177L10.0032 9.39355L9.68798 8.78991L9.20645 9.27145L5.30645 13.1714L5.12904 13.3488L5.16523 13.5971L5.48883 15.8174L5.06751 16.2348L3.62747 13.6329L3.55801 13.5074L3.43259 13.4378L0.816927 11.9865L1.23857 11.5569L3.4868 11.8896L3.73566 11.9264L3.91355 11.7486L7.78355 7.87855L8.26349 7.39861L7.66285 7.08253L0.83572 3.48979L1.57649 2.75423L10.4976 4.8122L10.7676 4.87449L10.9636 4.67855L14.8536 0.788553L14.8536 0.788608L14.8597 0.782297C15.2231 0.405901 15.8969 0.405901 16.2603 0.782297Z" fill="#171726" stroke="#626264"/>
</svg>
