<svg width="130" height="130" viewBox="0 0 130 130" fill="none" xmlns="http://www.w3.org/2000/svg">
<circle cx="65" cy="65" r="64.5" fill="#05050D" stroke="#1FB2FC"/>
<circle cx="65" cy="65" r="50" fill="#588CE0"/>
<path d="M67 97L72 92L67 87" stroke="white" stroke-linecap="round" stroke-linejoin="round"/>
<path d="M59 97L64 92L59 87" stroke="white" stroke-opacity="0.4" stroke-linecap="round" stroke-linejoin="round"/>
<path d="M53.424 44.096C52.432 44.096 51.5947 43.8773 50.912 43.44C50.2293 42.992 49.712 42.352 49.36 41.52C49.008 40.6773 48.832 39.6693 48.832 38.496C48.832 37.2267 49.0453 36.1653 49.472 35.312C49.9093 34.448 50.512 33.7973 51.28 33.36C52.048 32.9227 52.9387 32.704 53.952 32.704C54.4533 32.704 54.9333 32.752 55.392 32.848C55.8507 32.944 56.256 33.0987 56.608 33.312L56.144 34.24C55.856 34.048 55.5253 33.9147 55.152 33.84C54.7787 33.7547 54.384 33.712 53.968 33.712C52.7627 33.712 51.7973 34.096 51.072 34.864C50.3573 35.632 50 36.7787 50 38.304C50 38.5387 50.0107 38.832 50.032 39.184C50.064 39.5253 50.128 39.8667 50.224 40.208L49.824 39.904C49.9413 39.3493 50.1707 38.88 50.512 38.496C50.8533 38.1013 51.28 37.8027 51.792 37.6C52.304 37.3973 52.864 37.296 53.472 37.296C54.2187 37.296 54.8747 37.4347 55.44 37.712C56.0053 37.9893 56.448 38.3787 56.768 38.88C57.088 39.3813 57.248 39.9733 57.248 40.656C57.248 41.3493 57.0827 41.9573 56.752 42.48C56.4213 42.992 55.9627 43.392 55.376 43.68C54.8 43.9573 54.1493 44.096 53.424 44.096ZM53.376 43.12C53.9093 43.12 54.3787 43.024 54.784 42.832C55.2 42.6293 55.5253 42.3467 55.76 41.984C55.9947 41.6107 56.112 41.1787 56.112 40.688C56.112 39.952 55.856 39.3653 55.344 38.928C54.8427 38.4907 54.16 38.272 53.296 38.272C52.72 38.272 52.2187 38.3787 51.792 38.592C51.3653 38.8053 51.0293 39.0987 50.784 39.472C50.5387 39.8347 50.416 40.2507 50.416 40.72C50.416 41.1253 50.528 41.5147 50.752 41.888C50.976 42.2507 51.3067 42.5493 51.744 42.784C52.192 43.008 52.736 43.12 53.376 43.12ZM62.118 44.096C61.318 44.096 60.5553 43.968 59.83 43.712C59.1047 43.4453 58.5287 43.0933 58.102 42.656L58.662 41.744C59.014 42.1173 59.494 42.4267 60.102 42.672C60.7207 42.9173 61.3873 43.04 62.102 43.04C63.0513 43.04 63.7713 42.832 64.262 42.416C64.7633 41.9893 65.014 41.4347 65.014 40.752C65.014 40.272 64.8967 39.8613 64.662 39.52C64.438 39.168 64.054 38.896 63.51 38.704C62.966 38.512 62.2193 38.416 61.27 38.416H58.886L59.462 32.8H65.59V33.824H59.926L60.518 33.264L60.022 37.968L59.43 37.392H61.526C62.6567 37.392 63.5633 37.5307 64.246 37.808C64.9287 38.0853 65.4193 38.4747 65.718 38.976C66.0273 39.4667 66.182 40.0427 66.182 40.704C66.182 41.3333 66.0327 41.9093 65.734 42.432C65.4353 42.944 64.9873 43.3493 64.39 43.648C63.7927 43.9467 63.0353 44.096 62.118 44.096ZM68.9923 44L76.6403 32.8H77.5843L69.9363 44H68.9923ZM69.8563 38.8C69.3549 38.8 68.9123 38.6773 68.5283 38.432C68.1443 38.176 67.8456 37.8187 67.6323 37.36C67.4296 36.9013 67.3283 36.368 67.3283 35.76C67.3283 35.152 67.4296 34.6187 67.6323 34.16C67.8456 33.7013 68.1443 33.3493 68.5283 33.104C68.9123 32.848 69.3549 32.72 69.8563 32.72C70.3576 32.72 70.7949 32.848 71.1683 33.104C71.5523 33.3493 71.8509 33.7013 72.0643 34.16C72.2776 34.6187 72.3843 35.152 72.3843 35.76C72.3843 36.368 72.2776 36.9013 72.0643 37.36C71.8509 37.8187 71.5523 38.176 71.1683 38.432C70.7949 38.6773 70.3576 38.8 69.8563 38.8ZM69.8563 38.08C70.3789 38.08 70.7949 37.8773 71.1043 37.472C71.4243 37.056 71.5843 36.4853 71.5843 35.76C71.5843 35.0347 71.4243 34.4693 71.1043 34.064C70.7949 33.648 70.3789 33.44 69.8563 33.44C69.3229 33.44 68.9016 33.648 68.5923 34.064C68.2829 34.4693 68.1283 35.0347 68.1283 35.76C68.1283 36.4853 68.2829 37.056 68.5923 37.472C68.9016 37.8773 69.3229 38.08 69.8563 38.08ZM76.7203 44.08C76.2296 44.08 75.7923 43.9573 75.4083 43.712C75.0243 43.456 74.7256 43.0987 74.5123 42.64C74.2989 42.1813 74.1923 41.648 74.1923 41.04C74.1923 40.432 74.2989 39.8987 74.5123 39.44C74.7256 38.9813 75.0243 38.6293 75.4083 38.384C75.7923 38.128 76.2296 38 76.7203 38C77.2323 38 77.6749 38.128 78.0483 38.384C78.4323 38.6293 78.7256 38.9813 78.9283 39.44C79.1416 39.8987 79.2483 40.432 79.2483 41.04C79.2483 41.648 79.1416 42.1813 78.9283 42.64C78.7256 43.0987 78.4323 43.456 78.0483 43.712C77.6749 43.9573 77.2323 44.08 76.7203 44.08ZM76.7203 43.36C77.2429 43.36 77.6589 43.1573 77.9683 42.752C78.2883 42.336 78.4483 41.7653 78.4483 41.04C78.4483 40.3147 78.2883 39.7493 77.9683 39.344C77.6589 38.928 77.2429 38.72 76.7203 38.72C76.1976 38.72 75.7763 38.928 75.4563 39.344C75.1469 39.7493 74.9923 40.3147 74.9923 41.04C74.9923 41.7653 75.1469 42.336 75.4563 42.752C75.7763 43.1573 76.1976 43.36 76.7203 43.36Z" fill="white"/>
<path d="M33.14 62V55H35.76C36.3533 55 36.8633 55.0967 37.29 55.29C37.7167 55.4767 38.0433 55.75 38.27 56.11C38.5033 56.4633 38.62 56.8933 38.62 57.4C38.62 57.8933 38.5033 58.32 38.27 58.68C38.0433 59.0333 37.7167 59.3067 37.29 59.5C36.8633 59.6867 36.3533 59.78 35.76 59.78H33.55L33.88 59.44V62H33.14ZM37.92 62L36.12 59.46H36.92L38.73 62H37.92ZM33.88 59.5L33.55 59.15H35.74C36.44 59.15 36.97 58.9967 37.33 58.69C37.6967 58.3833 37.88 57.9533 37.88 57.4C37.88 56.84 37.6967 56.4067 37.33 56.1C36.97 55.7933 36.44 55.64 35.74 55.64H33.55L33.88 55.29V59.5ZM42.4466 62.05C41.8999 62.05 41.4199 61.9367 41.0066 61.71C40.5932 61.4767 40.2699 61.16 40.0366 60.76C39.8032 60.3533 39.6866 59.89 39.6866 59.37C39.6866 58.85 39.7966 58.39 40.0166 57.99C40.2432 57.59 40.5499 57.2767 40.9366 57.05C41.3299 56.8167 41.7699 56.7 42.2566 56.7C42.7499 56.7 43.1866 56.8133 43.5666 57.04C43.9532 57.26 44.2566 57.5733 44.4766 57.98C44.6966 58.38 44.8066 58.8433 44.8066 59.37C44.8066 59.4033 44.8032 59.44 44.7966 59.48C44.7966 59.5133 44.7966 59.55 44.7966 59.59H40.2266V59.06H44.4166L44.1366 59.27C44.1366 58.89 44.0532 58.5533 43.8866 58.26C43.7266 57.96 43.5066 57.7267 43.2266 57.56C42.9466 57.3933 42.6232 57.31 42.2566 57.31C41.8966 57.31 41.5732 57.3933 41.2866 57.56C40.9999 57.7267 40.7766 57.96 40.6166 58.26C40.4566 58.56 40.3766 58.9033 40.3766 59.29V59.4C40.3766 59.8 40.4632 60.1533 40.6366 60.46C40.8166 60.76 41.0632 60.9967 41.3766 61.17C41.6966 61.3367 42.0599 61.42 42.4666 61.42C42.7866 61.42 43.0832 61.3633 43.3566 61.25C43.6366 61.1367 43.8766 60.9633 44.0766 60.73L44.4766 61.19C44.2432 61.47 43.9499 61.6833 43.5966 61.83C43.2499 61.9767 42.8666 62.05 42.4466 62.05ZM46.3717 62V56.09C46.3717 55.6233 46.5084 55.2467 46.7817 54.96C47.0551 54.6733 47.4484 54.53 47.9617 54.53C48.1617 54.53 48.3551 54.5567 48.5417 54.61C48.7284 54.6633 48.8851 54.7467 49.0117 54.86L48.7717 55.39C48.6717 55.3033 48.5551 55.24 48.4217 55.2C48.2884 55.1533 48.1451 55.13 47.9917 55.13C47.6917 55.13 47.4617 55.2133 47.3017 55.38C47.1417 55.5467 47.0617 55.7933 47.0617 56.12V56.92L47.0817 57.25V62H46.3717ZM45.4317 57.34V56.75H48.6817V57.34H45.4317ZM49.6417 62V56.75H50.3517V62H49.6417ZM50.0017 55.59C49.8551 55.59 49.7317 55.54 49.6317 55.44C49.5317 55.34 49.4817 55.22 49.4817 55.08C49.4817 54.94 49.5317 54.8233 49.6317 54.73C49.7317 54.63 49.8551 54.58 50.0017 54.58C50.1484 54.58 50.2717 54.6267 50.3717 54.72C50.4717 54.8133 50.5217 54.93 50.5217 55.07C50.5217 55.2167 50.4717 55.34 50.3717 55.44C50.2784 55.54 50.1551 55.59 50.0017 55.59ZM52.3455 62V54.58H53.0555V62H52.3455ZM55.031 62V54.58H55.741V62H55.031ZM62.4138 62.06C61.8938 62.06 61.3938 61.9767 60.9138 61.81C60.4404 61.6367 60.0738 61.4167 59.8138 61.15L60.1038 60.58C60.3504 60.82 60.6804 61.0233 61.0938 61.19C61.5138 61.35 61.9538 61.43 62.4138 61.43C62.8538 61.43 63.2104 61.3767 63.4838 61.27C63.7638 61.1567 63.9671 61.0067 64.0938 60.82C64.2271 60.6333 64.2938 60.4267 64.2938 60.2C64.2938 59.9267 64.2138 59.7067 64.0538 59.54C63.9004 59.3733 63.6971 59.2433 63.4438 59.15C63.1904 59.05 62.9104 58.9633 62.6038 58.89C62.2971 58.8167 61.9904 58.74 61.6838 58.66C61.3771 58.5733 61.0938 58.46 60.8338 58.32C60.5804 58.18 60.3738 57.9967 60.2138 57.77C60.0604 57.5367 59.9838 57.2333 59.9838 56.86C59.9838 56.5133 60.0738 56.1967 60.2538 55.91C60.4404 55.6167 60.7238 55.3833 61.1038 55.21C61.4838 55.03 61.9704 54.94 62.5638 54.94C62.9571 54.94 63.3471 54.9967 63.7338 55.11C64.1204 55.2167 64.4538 55.3667 64.7338 55.56L64.4837 56.15C64.1838 55.95 63.8638 55.8033 63.5238 55.71C63.1904 55.6167 62.8671 55.57 62.5538 55.57C62.1338 55.57 61.7871 55.6267 61.5138 55.74C61.2404 55.8533 61.0371 56.0067 60.9038 56.2C60.7771 56.3867 60.7138 56.6 60.7138 56.84C60.7138 57.1133 60.7904 57.3333 60.9438 57.5C61.1038 57.6667 61.3104 57.7967 61.5638 57.89C61.8238 57.9833 62.1071 58.0667 62.4138 58.14C62.7204 58.2133 63.0238 58.2933 63.3238 58.38C63.6304 58.4667 63.9104 58.58 64.1638 58.72C64.4238 58.8533 64.6304 59.0333 64.7838 59.26C64.9438 59.4867 65.0238 59.7833 65.0238 60.15C65.0238 60.49 64.9304 60.8067 64.7438 61.1C64.5571 61.3867 64.2704 61.62 63.8838 61.8C63.5038 61.9733 63.0138 62.06 62.4138 62.06ZM68.6661 62.05C68.1461 62.05 67.6794 61.9367 67.2661 61.71C66.8594 61.4767 66.5394 61.16 66.3061 60.76C66.0728 60.3533 65.9561 59.89 65.9561 59.37C65.9561 58.8433 66.0728 58.38 66.3061 57.98C66.5394 57.58 66.8594 57.2667 67.2661 57.04C67.6794 56.8133 68.1461 56.7 68.6661 56.7C69.1128 56.7 69.5161 56.7867 69.8761 56.96C70.2361 57.1333 70.5194 57.3933 70.7261 57.74L70.1961 58.1C70.0161 57.8333 69.7928 57.6367 69.5261 57.51C69.2594 57.3833 68.9694 57.32 68.6561 57.32C68.2828 57.32 67.9461 57.4067 67.6461 57.58C67.3461 57.7467 67.1094 57.9833 66.9361 58.29C66.7628 58.5967 66.6761 58.9567 66.6761 59.37C66.6761 59.7833 66.7628 60.1433 66.9361 60.45C67.1094 60.7567 67.3461 60.9967 67.6461 61.17C67.9461 61.3367 68.2828 61.42 68.6561 61.42C68.9694 61.42 69.2594 61.3567 69.5261 61.23C69.7928 61.1033 70.0161 60.91 70.1961 60.65L70.7261 61.01C70.5194 61.35 70.2361 61.61 69.8761 61.79C69.5161 61.9633 69.1128 62.05 68.6661 62.05ZM74.263 62.05C73.7163 62.05 73.2363 61.9367 72.823 61.71C72.4096 61.4767 72.0863 61.16 71.853 60.76C71.6196 60.3533 71.503 59.89 71.503 59.37C71.503 58.85 71.613 58.39 71.833 57.99C72.0596 57.59 72.3663 57.2767 72.753 57.05C73.1463 56.8167 73.5863 56.7 74.073 56.7C74.5663 56.7 75.003 56.8133 75.383 57.04C75.7696 57.26 76.073 57.5733 76.293 57.98C76.513 58.38 76.623 58.8433 76.623 59.37C76.623 59.4033 76.6196 59.44 76.613 59.48C76.613 59.5133 76.613 59.55 76.613 59.59H72.043V59.06H76.233L75.953 59.27C75.953 58.89 75.8696 58.5533 75.703 58.26C75.543 57.96 75.323 57.7267 75.043 57.56C74.763 57.3933 74.4396 57.31 74.073 57.31C73.713 57.31 73.3896 57.3933 73.103 57.56C72.8163 57.7267 72.593 57.96 72.433 58.26C72.273 58.56 72.193 58.9033 72.193 59.29V59.4C72.193 59.8 72.2796 60.1533 72.453 60.46C72.633 60.76 72.8796 60.9967 73.193 61.17C73.513 61.3367 73.8763 61.42 74.283 61.42C74.603 61.42 74.8996 61.3633 75.173 61.25C75.453 61.1367 75.693 60.9633 75.893 60.73L76.293 61.19C76.0596 61.47 75.7663 61.6833 75.413 61.83C75.0663 61.9767 74.683 62.05 74.263 62.05ZM80.7481 56.7C81.1748 56.7 81.5481 56.7833 81.8681 56.95C82.1948 57.11 82.4481 57.3567 82.6281 57.69C82.8148 58.0233 82.9081 58.4433 82.9081 58.95V62H82.1981V59.02C82.1981 58.4667 82.0581 58.05 81.7781 57.77C81.5048 57.4833 81.1181 57.34 80.6181 57.34C80.2448 57.34 79.9181 57.4167 79.6381 57.57C79.3648 57.7167 79.1515 57.9333 78.9981 58.22C78.8515 58.5 78.7781 58.84 78.7781 59.24V62H78.0681V56.75H78.7481V58.19L78.6381 57.92C78.8048 57.54 79.0715 57.2433 79.4381 57.03C79.8048 56.81 80.2415 56.7 80.7481 56.7ZM86.4859 62.05C85.9926 62.05 85.6126 61.9167 85.3459 61.65C85.0793 61.3833 84.9459 61.0067 84.9459 60.52V55.59H85.6559V60.48C85.6559 60.7867 85.7326 61.0233 85.8859 61.19C86.0459 61.3567 86.2726 61.44 86.5659 61.44C86.8793 61.44 87.1393 61.35 87.3459 61.17L87.5959 61.68C87.4559 61.8067 87.2859 61.9 87.0859 61.96C86.8926 62.02 86.6926 62.05 86.4859 62.05ZM84.0059 57.34V56.75H87.2559V57.34H84.0059ZM93.3556 62.06C92.9023 62.06 92.499 61.9867 92.1456 61.84C91.7923 61.6867 91.5123 61.4767 91.3056 61.21C91.1056 60.9433 91.0056 60.6333 91.0056 60.28C91.0056 59.98 91.0723 59.7067 91.2056 59.46C91.339 59.2067 91.5523 58.96 91.8456 58.72C92.1456 58.4733 92.5423 58.2167 93.0356 57.95C93.4556 57.7167 93.7823 57.5167 94.0156 57.35C94.2556 57.1767 94.4256 57.0133 94.5256 56.86C94.6256 56.7 94.6756 56.53 94.6756 56.35C94.6756 56.09 94.5856 55.88 94.4056 55.72C94.2323 55.56 93.9823 55.48 93.6556 55.48C93.3023 55.48 93.029 55.57 92.8356 55.75C92.6423 55.9233 92.5456 56.15 92.5456 56.43C92.5456 56.57 92.5656 56.7033 92.6056 56.83C92.6523 56.9567 92.7356 57.0967 92.8556 57.25C92.9823 57.4033 93.1556 57.5967 93.3756 57.83L97.0756 61.64L96.6656 62.11L92.8056 58.14C92.5723 57.8933 92.3856 57.68 92.2456 57.5C92.1123 57.3133 92.019 57.1367 91.9656 56.97C91.9123 56.8033 91.8856 56.6267 91.8856 56.44C91.8856 56.14 91.9556 55.88 92.0956 55.66C92.2423 55.4333 92.449 55.26 92.7156 55.14C92.9823 55.0133 93.2956 54.95 93.6556 54.95C93.9823 54.95 94.2656 55.0067 94.5056 55.12C94.7523 55.2267 94.9423 55.3833 95.0756 55.59C95.2156 55.7967 95.2856 56.0467 95.2856 56.34C95.2856 56.5933 95.2223 56.83 95.0956 57.05C94.9756 57.27 94.7756 57.4867 94.4956 57.7C94.2156 57.9067 93.8356 58.14 93.3556 58.4C92.9356 58.6333 92.6023 58.8467 92.3556 59.04C92.1156 59.2333 91.9456 59.4233 91.8456 59.61C91.7456 59.79 91.6956 59.99 91.6956 60.21C91.6956 60.4633 91.7656 60.6867 91.9056 60.88C92.0523 61.0667 92.2523 61.2133 92.5056 61.32C92.7656 61.42 93.0623 61.47 93.3956 61.47C93.8623 61.47 94.279 61.3733 94.6456 61.18C95.0123 60.9867 95.319 60.6933 95.5656 60.3C95.819 59.9067 96.0023 59.4133 96.1156 58.82L96.6856 59C96.559 59.6667 96.3423 60.2267 96.0356 60.68C95.729 61.1333 95.349 61.4767 94.8956 61.71C94.4423 61.9433 93.929 62.06 93.3556 62.06ZM46.6488 74.06C46.1221 74.06 45.6354 73.9733 45.1888 73.8C44.7421 73.62 44.3554 73.37 44.0288 73.05C43.7021 72.73 43.4454 72.3533 43.2588 71.92C43.0788 71.4867 42.9888 71.0133 42.9888 70.5C42.9888 69.9867 43.0788 69.5133 43.2588 69.08C43.4454 68.6467 43.7021 68.27 44.0288 67.95C44.3621 67.63 44.7521 67.3833 45.1988 67.21C45.6454 67.03 46.1321 66.94 46.6588 66.94C47.1654 66.94 47.6421 67.0267 48.0888 67.2C48.5354 67.3667 48.9121 67.62 49.2188 67.96L48.7488 68.43C48.4621 68.1367 48.1454 67.9267 47.7988 67.8C47.4521 67.6667 47.0788 67.6 46.6788 67.6C46.2588 67.6 45.8688 67.6733 45.5088 67.82C45.1488 67.96 44.8354 68.1633 44.5688 68.43C44.3021 68.69 44.0921 68.9967 43.9387 69.35C43.7921 69.6967 43.7188 70.08 43.7188 70.5C43.7188 70.92 43.7921 71.3067 43.9387 71.66C44.0921 72.0067 44.3021 72.3133 44.5688 72.58C44.8354 72.84 45.1488 73.0433 45.5088 73.19C45.8688 73.33 46.2588 73.4 46.6788 73.4C47.0788 73.4 47.4521 73.3333 47.7988 73.2C48.1454 73.0667 48.4621 72.8533 48.7488 72.56L49.2188 73.03C48.9121 73.37 48.5354 73.6267 48.0888 73.8C47.6421 73.9733 47.1621 74.06 46.6488 74.06ZM53.8581 74V72.84L53.8281 72.65V70.71C53.8281 70.2633 53.7015 69.92 53.4481 69.68C53.2015 69.44 52.8315 69.32 52.3381 69.32C51.9981 69.32 51.6748 69.3767 51.3681 69.49C51.0615 69.6033 50.8015 69.7533 50.5881 69.94L50.2681 69.41C50.5348 69.1833 50.8548 69.01 51.2281 68.89C51.6015 68.7633 51.9948 68.7 52.4081 68.7C53.0881 68.7 53.6115 68.87 53.9781 69.21C54.3515 69.5433 54.5381 70.0533 54.5381 70.74V74H53.8581ZM52.0481 74.05C51.6548 74.05 51.3115 73.9867 51.0181 73.86C50.7315 73.7267 50.5115 73.5467 50.3581 73.32C50.2048 73.0867 50.1281 72.82 50.1281 72.52C50.1281 72.2467 50.1915 72 50.3181 71.78C50.4515 71.5533 50.6648 71.3733 50.9581 71.24C51.2581 71.1 51.6581 71.03 52.1581 71.03H53.9681V71.56H52.1781C51.6715 71.56 51.3181 71.65 51.1181 71.83C50.9248 72.01 50.8281 72.2333 50.8281 72.5C50.8281 72.8 50.9448 73.04 51.1781 73.22C51.4115 73.4 51.7381 73.49 52.1581 73.49C52.5581 73.49 52.9015 73.4 53.1881 73.22C53.4815 73.0333 53.6948 72.7667 53.8281 72.42L53.9881 72.91C53.8548 73.2567 53.6215 73.5333 53.2881 73.74C52.9615 73.9467 52.5481 74.05 52.0481 74.05ZM56.4666 74V66.58H57.1766V74H56.4666ZM59.1521 74V68.75H59.8621V74H59.1521ZM59.5121 67.59C59.3654 67.59 59.2421 67.54 59.1421 67.44C59.0421 67.34 58.9921 67.22 58.9921 67.08C58.9921 66.94 59.0421 66.8233 59.1421 66.73C59.2421 66.63 59.3654 66.58 59.5121 66.58C59.6588 66.58 59.7821 66.6267 59.8821 66.72C59.9821 66.8133 60.0321 66.93 60.0321 67.07C60.0321 67.2167 59.9821 67.34 59.8821 67.44C59.7888 67.54 59.6654 67.59 59.5121 67.59ZM64.5477 74.05C64.0877 74.05 63.6743 73.9467 63.3077 73.74C62.941 73.5267 62.651 73.22 62.4377 72.82C62.2243 72.42 62.1177 71.9367 62.1177 71.37C62.1177 70.7967 62.2243 70.3133 62.4377 69.92C62.6577 69.52 62.951 69.2167 63.3177 69.01C63.6843 68.8033 64.0943 68.7 64.5477 68.7C65.0477 68.7 65.4943 68.8133 65.8877 69.04C66.2877 69.26 66.601 69.57 66.8277 69.97C67.0543 70.37 67.1677 70.8367 67.1677 71.37C67.1677 71.8967 67.0543 72.3633 66.8277 72.77C66.601 73.17 66.2877 73.4833 65.8877 73.71C65.4943 73.9367 65.0477 74.05 64.5477 74.05ZM61.8377 74V66.58H62.5477V70.3L62.4477 71.36L62.5177 72.42V74H61.8377ZM64.4977 73.42C64.871 73.42 65.2043 73.3367 65.4977 73.17C65.791 72.9967 66.0243 72.7567 66.1977 72.45C66.371 72.1367 66.4577 71.7767 66.4577 71.37C66.4577 70.9567 66.371 70.5967 66.1977 70.29C66.0243 69.9833 65.791 69.7467 65.4977 69.58C65.2043 69.4067 64.871 69.32 64.4977 69.32C64.1243 69.32 63.7877 69.4067 63.4877 69.58C63.1943 69.7467 62.961 69.9833 62.7877 70.29C62.621 70.5967 62.5377 70.9567 62.5377 71.37C62.5377 71.7767 62.621 72.1367 62.7877 72.45C62.961 72.7567 63.1943 72.9967 63.4877 73.17C63.7877 73.3367 64.1243 73.42 64.4977 73.42ZM68.615 74V68.75H69.295V70.18L69.225 69.93C69.3717 69.53 69.6183 69.2267 69.965 69.02C70.3117 68.8067 70.7417 68.7 71.255 68.7V69.39C71.2283 69.39 71.2017 69.39 71.175 69.39C71.1483 69.3833 71.1217 69.38 71.095 69.38C70.5417 69.38 70.1083 69.55 69.795 69.89C69.4817 70.2233 69.325 70.7 69.325 71.32V74H68.615ZM75.4499 74V72.84L75.4199 72.65V70.71C75.4199 70.2633 75.2933 69.92 75.0399 69.68C74.7933 69.44 74.4233 69.32 73.9299 69.32C73.5899 69.32 73.2666 69.3767 72.9599 69.49C72.6533 69.6033 72.3933 69.7533 72.1799 69.94L71.8599 69.41C72.1266 69.1833 72.4466 69.01 72.8199 68.89C73.1933 68.7633 73.5866 68.7 73.9999 68.7C74.6799 68.7 75.2033 68.87 75.5699 69.21C75.9433 69.5433 76.1299 70.0533 76.1299 70.74V74H75.4499ZM73.6399 74.05C73.2466 74.05 72.9033 73.9867 72.6099 73.86C72.3233 73.7267 72.1033 73.5467 71.9499 73.32C71.7966 73.0867 71.7199 72.82 71.7199 72.52C71.7199 72.2467 71.7833 72 71.9099 71.78C72.0433 71.5533 72.2566 71.3733 72.5499 71.24C72.8499 71.1 73.2499 71.03 73.7499 71.03H75.5599V71.56H73.7699C73.2633 71.56 72.9099 71.65 72.7099 71.83C72.5166 72.01 72.4199 72.2333 72.4199 72.5C72.4199 72.8 72.5366 73.04 72.7699 73.22C73.0033 73.4 73.3299 73.49 73.7499 73.49C74.1499 73.49 74.4933 73.4 74.7799 73.22C75.0733 73.0333 75.2866 72.7667 75.4199 72.42L75.5799 72.91C75.4466 73.2567 75.2133 73.5333 74.8799 73.74C74.5533 73.9467 74.1399 74.05 73.6399 74.05ZM79.7184 74.05C79.225 74.05 78.845 73.9167 78.5784 73.65C78.3117 73.3833 78.1784 73.0067 78.1784 72.52V67.59H78.8884V72.48C78.8884 72.7867 78.965 73.0233 79.1184 73.19C79.2784 73.3567 79.505 73.44 79.7984 73.44C80.1117 73.44 80.3717 73.35 80.5784 73.17L80.8284 73.68C80.6884 73.8067 80.5184 73.9 80.3184 73.96C80.125 74.02 79.925 74.05 79.7184 74.05ZM77.2384 69.34V68.75H80.4884V69.34H77.2384ZM84.1653 74.05C83.6186 74.05 83.1386 73.9367 82.7253 73.71C82.312 73.4767 81.9886 73.16 81.7553 72.76C81.522 72.3533 81.4053 71.89 81.4053 71.37C81.4053 70.85 81.5153 70.39 81.7353 69.99C81.962 69.59 82.2686 69.2767 82.6553 69.05C83.0486 68.8167 83.4886 68.7 83.9753 68.7C84.4686 68.7 84.9053 68.8133 85.2853 69.04C85.672 69.26 85.9753 69.5733 86.1953 69.98C86.4153 70.38 86.5253 70.8433 86.5253 71.37C86.5253 71.4033 86.522 71.44 86.5153 71.48C86.5153 71.5133 86.5153 71.55 86.5153 71.59H81.9453V71.06H86.1353L85.8553 71.27C85.8553 70.89 85.772 70.5533 85.6053 70.26C85.4453 69.96 85.2253 69.7267 84.9453 69.56C84.6653 69.3933 84.342 69.31 83.9753 69.31C83.6153 69.31 83.292 69.3933 83.0053 69.56C82.7186 69.7267 82.4953 69.96 82.3353 70.26C82.1753 70.56 82.0953 70.9033 82.0953 71.29V71.4C82.0953 71.8 82.182 72.1533 82.3553 72.46C82.5353 72.76 82.782 72.9967 83.0953 73.17C83.4153 73.3367 83.7786 73.42 84.1853 73.42C84.5053 73.42 84.802 73.3633 85.0753 73.25C85.3553 73.1367 85.5953 72.9633 85.7953 72.73L86.1953 73.19C85.962 73.47 85.6686 73.6833 85.3153 73.83C84.9686 73.9767 84.5853 74.05 84.1653 74.05Z" fill="white"/>
<circle cx="124.5" cy="40.5" r="3.5" fill="#1FB2FC"/>
</svg>
